<svg width="45" height="45" viewBox="0 0 45 45" fill="none" xmlns="http://www.w3.org/2000/svg">
<path d="M18.7488 6.75006C18.7488 8.19271 19.7546 9.42394 21.17 9.90684C22.0433 10.098 22.9556 10.0981 23.8291 9.90707C25.2445 9.42432 26.251 8.19293 26.251 6.75006C26.251 4.88608 24.5715 3.37503 22.4999 3.37503C20.4281 3.37503 18.7488 4.88608 18.7488 6.75006ZM15.0633 7.64728C15.02 7.35374 14.9976 7.05427 14.9976 6.75006C14.9976 3.02212 18.3564 0 22.4999 0C26.6431 0 30.0021 3.02212 30.0021 6.75006C30.0021 7.05431 29.9796 7.35386 29.9364 7.64744L37.1297 4.90019C39.9883 3.80839 43.3011 5 44.5354 7.56405C45.774 10.1369 44.4504 13.1156 41.582 14.2111L32.5091 17.6762V26.0399L37.1963 38.2879C38.2081 40.9315 36.6463 43.8126 33.708 44.7228C30.7699 45.6331 27.5679 44.228 26.5561 41.5844L22.5002 30.9862L18.4445 41.5838C17.4328 44.2275 14.2308 45.6327 11.2926 44.7223C8.35435 43.8122 6.79259 40.931 7.80431 38.2875L12.5031 26.0091V17.6809L3.41805 14.2111C0.549499 13.1156 -0.773991 10.1369 0.464574 7.56405C1.69889 5 5.01166 3.80839 7.87036 4.90019L15.0633 7.64728ZM20.0542 13.1333C19.6413 13.033 19.2342 12.9067 18.8358 12.7546L6.4047 8.0069C5.44314 7.63968 4.32186 8.04301 3.90669 8.90545C3.49577 9.75906 3.93202 10.7409 4.88373 11.1044L14.3497 14.7196C15.5044 15.1606 16.2543 16.1799 16.2543 17.3086V26.1034C16.2543 26.415 16.1967 26.7244 16.084 27.0189L11.3511 39.3862C11.0138 40.2675 11.5344 41.2278 12.5138 41.5311C13.4932 41.8346 14.5606 41.3662 14.8978 40.4851L20.1702 26.7082C20.9342 24.71 24.0691 24.7178 24.8301 26.7075L30.1029 40.4855C30.44 41.3669 31.5073 41.8351 32.4869 41.5318C33.4662 41.2283 33.9868 40.2679 33.6495 39.3868L28.9283 27.0498C28.8155 26.755 28.758 26.4456 28.758 26.134V17.3039C28.758 16.1753 29.5077 15.1559 30.6626 14.715L40.1164 11.1044C41.0679 10.7409 41.5043 9.75906 41.0934 8.90545C40.678 8.04301 39.5569 7.63968 38.5952 8.0069L26.1643 12.7546C25.7651 12.9069 25.3575 13.0333 24.9439 13.1338C24.1779 13.3712 23.3557 13.5001 22.4999 13.5001C21.6434 13.5001 20.8207 13.3711 20.0542 13.1333Z" fill="#FEA609"/>
</svg>
