<svg width="40" height="50" viewBox="0 0 40 50" fill="none" xmlns="http://www.w3.org/2000/svg">
<path d="M1.875 45.9583H38.125C39.1605 45.9583 40 46.8258 40 47.8958C40 48.8767 39.2945 49.6874 38.3795 49.8158L38.125 49.8333H1.875C0.839475 49.8333 0 48.9658 0 47.8958C0 46.9149 0.705375 46.1043 1.62058 45.9759L1.875 45.9583H38.125H1.875ZM30.625 0.75C35.8027 0.75 40 5.08724 40 10.4375V32.3958C40 37.7462 35.8027 42.0833 30.625 42.0833H9.375C4.19733 42.0833 0 37.7462 0 32.3958V10.4375C0 5.08724 4.19733 0.75 9.375 0.75H30.625ZM30.625 4.625H9.375C6.2684 4.625 3.75 7.22735 3.75 10.4375V32.3958C3.75 35.6059 6.2684 38.2083 9.375 38.2083H30.625C33.7315 38.2083 36.25 35.6059 36.25 32.3958V10.4375C36.25 7.22735 33.7315 4.625 30.625 4.625Z" fill="#FEA609"/>
</svg>
