<svg width="45" height="45" viewBox="0 0 45 45" fill="none" xmlns="http://www.w3.org/2000/svg">
<path d="M17.7632 2.36842C20.7062 2.36842 23.0921 4.75427 23.0921 7.69737V21.9079H37.3026C40.2456 21.9079 42.6316 24.2938 42.6316 27.2368V39.6711C42.6316 42.6141 40.2456 45 37.3026 45H5.32895C2.38585 45 0 42.6141 0 39.6711V7.69737C0 4.75427 2.38585 2.36842 5.32895 2.36842H17.7632ZM19.5395 25.4605H3.55263V39.6711C3.55263 40.6521 4.34792 41.4474 5.32895 41.4474H19.5371L19.5395 25.4605ZM37.3026 25.4605H23.0897V41.4474H37.3026C38.2836 41.4474 39.0789 40.6521 39.0789 39.6711V27.2368C39.0789 26.2558 38.2836 25.4605 37.3026 25.4605ZM17.7632 5.92105H5.32895C4.34792 5.92105 3.55263 6.71634 3.55263 7.69737V21.9079H19.5395V7.69737C19.5395 6.71634 18.7442 5.92105 17.7632 5.92105ZM35.2852 0.0162237L35.5263 0C36.4256 0 37.1688 0.66825 37.2865 1.53528L37.3026 1.77632V7.69737H43.2237C44.123 7.69737 44.8662 8.36562 44.9839 9.23265L45 9.47368C45 10.373 44.3316 11.1162 43.4648 11.2338L43.2237 11.25H37.3026V17.1711C37.3026 18.0703 36.6343 18.8135 35.7674 18.9311L35.5263 18.9474C34.627 18.9474 33.8838 18.2791 33.7661 17.4121L33.75 17.1711V11.25H27.8289C26.9297 11.25 26.1864 10.5817 26.0687 9.71472L26.0526 9.47368C26.0526 8.5744 26.721 7.83121 27.5878 7.71359L27.8289 7.69737H33.75V1.77632C33.75 0.877026 34.4184 0.133839 35.2852 0.0162237Z" fill="#FEA609"/>
</svg>
