<svg width="45" height="45" viewBox="0 0 45 45" fill="none" xmlns="http://www.w3.org/2000/svg">
<path d="M21.9921 0.482183C21.2584 -0.160746 20.0689 -0.160724 19.3356 0.482227C18.6019 1.12518 18.6019 2.1676 19.3356 2.8105L22.3911 5.48825C10.0109 5.55954 0 14.3771 0 25.2439C0 36.155 10.0926 45 22.5423 45C34.2999 45 43.9533 37.1125 44.9922 27.0443C45.0857 26.1389 44.3237 25.3383 43.2906 25.2564C42.2574 25.1745 41.3439 25.8423 41.2505 26.7478C40.3848 35.1347 32.3385 41.7073 22.5423 41.7073C12.1675 41.7073 3.75706 34.3363 3.75706 25.2439C3.75706 16.1961 12.085 8.85299 22.3895 8.78102L19.3356 11.4576C18.6019 12.1005 18.6019 13.1429 19.3356 13.7858C20.0692 14.4288 21.2584 14.4288 21.9921 13.7858L28.2538 8.29802C28.6062 7.98926 28.8041 7.57049 28.8041 7.13386C28.8041 6.69721 28.6062 6.27847 28.2538 5.96972L21.9921 0.482183ZM32.0194 19.1408C32.753 19.7838 32.753 20.826 32.0194 21.469L20.7397 31.3547C20.3875 31.6633 19.9096 31.8367 19.4115 31.8367C18.9133 31.837 18.4354 31.6633 18.0832 31.3547L13.0737 26.9644C12.3401 26.3215 12.3401 25.279 13.0737 24.6361C13.8073 23.9931 14.9968 23.9931 15.7304 24.6361L19.4115 27.8622L29.3626 19.1408C30.0963 18.4978 31.2858 18.4978 32.0194 19.1408Z" fill="#FEA609"/>
</svg>
