<svg width="45" height="45" viewBox="0 0 45 45" fill="none" xmlns="http://www.w3.org/2000/svg">
<path d="M45 22.5V38.25C45 41.8448 42.19 44.7833 38.6467 44.9885L38.25 45H31.5C30.3462 45 29.3951 44.1315 29.2651 43.0124L29.25 42.75V29.25C29.25 28.0962 30.1185 27.1451 31.2376 27.0151L31.5 27H41.625V22.5C41.625 11.9376 33.0624 3.375 22.5 3.375C11.9376 3.375 3.375 11.9376 3.375 22.5V27H13.5C14.7426 27 15.75 28.0073 15.75 29.25V42.75C15.75 43.9927 14.7426 45 13.5 45H6.75C3.02209 45 0 41.978 0 38.25V22.5C0 10.0736 10.0736 0 22.5 0C34.9263 0 45 10.0736 45 22.5V38.25V22.5ZM12.375 30.375H3.375V38.25C3.375 40.1139 4.88603 41.625 6.75 41.625H12.375V30.375ZM41.625 30.375H32.625V41.625H38.25C40.0043 41.625 41.4459 40.2865 41.6095 38.5751L41.625 38.25V30.375Z" fill="#FEA609"/>
</svg>
