<svg width="45" height="45" viewBox="0 0 45 45" fill="none" xmlns="http://www.w3.org/2000/svg">
<path d="M42.6419 2.35806C39.4972 -0.786155 34.3992 -0.785998 31.255 2.3584L4.36732 29.2471C3.45308 30.1614 2.81048 31.3115 2.511 32.5692L0.04592 42.9218C-0.0898003 43.4917 0.0799175 44.0913 0.494278 44.5057C0.908662 44.9201 1.50833 45.0898 2.07839 44.9541L12.4312 42.4892C13.6894 42.1897 14.8398 41.5469 15.7543 40.6324L38.2489 18.1367C39.7749 19.6754 39.7711 22.1594 38.2372 23.6931L34.2246 27.7055C33.5656 28.3645 33.5656 29.4329 34.2246 30.0919C34.8836 30.7509 35.9519 30.7509 36.6109 30.0919L40.6238 26.0795C43.4755 23.2279 43.4795 18.6069 40.6353 15.7503L42.6421 13.7434C45.786 10.5993 45.786 5.50198 42.6419 2.35806ZM33.6416 4.74455C35.4677 2.91825 38.4289 2.91816 40.2553 4.74437C42.0814 6.57043 42.0816 9.53104 40.2555 11.3572L13.3677 38.2462C12.8949 38.7191 12.3 39.0514 11.6495 39.2062L3.9643 41.036L5.79423 33.3508C5.94905 32.7006 6.28129 32.106 6.75395 31.6333L33.6416 4.74455Z" fill="#FEA609"/>
</svg>
