<svg width="23" height="23" viewBox="0 0 23 23" fill="none" xmlns="http://www.w3.org/2000/svg">
<path d="M9.2639 0C14.3803 0 18.5278 4.14759 18.5278 9.2639C18.5278 11.4769 17.7518 13.5085 16.4572 15.1018L22.7193 21.3641C23.0936 21.7383 23.0936 22.345 22.7193 22.7193C22.3792 23.0596 21.8467 23.0905 21.4716 22.8121L21.3641 22.7193L15.1018 16.4571C13.5086 17.7518 11.4769 18.5278 9.2639 18.5278C4.1476 18.5278 0 14.3802 0 9.2639C0 4.14759 4.1476 0 9.2639 0ZM9.2639 1.91667C5.20613 1.91667 1.91667 5.20613 1.91667 9.2639C1.91667 13.3216 5.20613 16.6111 9.2639 16.6111C13.3216 16.6111 16.6111 13.3216 16.6111 9.2639C16.6111 5.20613 13.3216 1.91667 9.2639 1.91667Z" fill="#E9E6E6"/>
</svg>
