<svg width="45" height="45" viewBox="0 0 45 45" fill="none" xmlns="http://www.w3.org/2000/svg">
<path d="M22.5257 0C24.2895 0.0195231 26.0466 0.215216 27.7686 0.58394C28.5201 0.744902 29.0823 1.34656 29.1676 2.08145L29.5767 5.60496C29.7617 7.22277 31.1845 8.44811 32.8803 8.44982C33.3362 8.45051 33.7871 8.35936 34.2084 8.1804L37.5746 6.76054C38.2747 6.46522 39.0928 6.62623 39.6153 7.16222C42.048 9.65689 43.8596 12.6488 44.9142 15.9129C45.1416 16.6168 44.8798 17.3817 44.2619 17.8189L41.2784 19.9307C40.4271 20.5311 39.9246 21.4847 39.9246 22.4989C39.9246 23.5129 40.4271 24.4664 41.2801 25.0683L44.2665 27.1808C44.8844 27.6178 45.1464 28.3828 44.919 29.0869C43.8649 32.3505 42.0542 35.3422 39.623 37.8372C39.1007 38.3731 38.2836 38.5346 37.5835 38.2399L34.2034 36.8182C33.2365 36.4118 32.1259 36.4713 31.2122 36.9786C30.2984 37.4856 29.6903 38.3798 29.574 39.3871L29.1679 42.9103C29.084 43.6367 28.5338 44.2344 27.7934 44.4036C24.3123 45.1988 20.6854 45.1988 17.2042 44.4036C16.4636 44.2344 15.9136 43.6367 15.8298 42.9103L15.4241 39.3924C15.3049 38.3869 14.6958 37.4955 13.7827 36.9901C12.8697 36.4847 11.761 36.4254 10.7972 36.8295L7.4166 38.2515C6.71638 38.5462 5.89878 38.3846 5.37665 37.8483C2.94406 35.3505 1.13329 32.3551 0.080642 29.0881C-0.146091 28.3845 0.115875 27.6199 0.733491 27.1831L3.72169 25.0692C4.57282 24.4688 5.07548 23.5152 5.07548 22.5012C5.07548 21.487 4.57282 20.5334 3.72056 19.9323L0.734261 17.822C0.115707 17.3849 -0.1465 16.6195 0.0810505 15.9152C1.13553 12.6511 2.94723 9.65919 5.37987 7.16453C5.90253 6.62854 6.72051 6.46753 7.42061 6.76285L10.7862 8.18245C11.7546 8.59055 12.868 8.52891 13.786 8.01392C14.7 7.50484 15.3085 6.60976 15.426 5.60226L15.8348 2.08145C15.9202 1.3462 16.4828 0.744325 17.2349 0.583709C18.9588 0.215585 20.7176 0.0199616 22.5257 0ZM22.5259 3.46132C21.4348 3.47364 20.3465 3.56408 19.2706 3.73159L19.0088 5.98658C18.7642 8.08544 17.4974 9.94853 15.5997 11.0055C13.6903 12.0766 11.3624 12.2055 9.33691 11.352L7.17799 10.4413C5.80343 12.0433 4.70938 13.8493 3.93881 15.7885L5.85621 17.1434C7.63184 18.396 8.68052 20.3855 8.68052 22.5012C8.68052 24.6167 7.63184 26.6061 5.85809 27.8574L3.93766 29.2159C4.70755 31.1585 5.8018 32.968 7.17729 34.573L9.35265 33.658C11.3669 32.8136 13.679 32.9371 15.5831 33.991C17.4873 35.0449 18.7574 36.904 19.0067 39.0061L19.2684 41.2766C21.4067 41.6258 23.5908 41.6258 25.7291 41.2766L25.9908 39.0063C26.2331 36.9049 27.5018 35.0394 29.4084 33.9815C31.3148 32.9235 33.6316 32.7993 35.6495 33.6474L37.8231 34.5617C39.1973 32.9592 40.2911 31.1528 41.0616 29.2132L39.1437 27.8565C37.3681 26.6038 36.3195 24.6144 36.3195 22.4989C36.3195 20.3832 37.3681 18.3937 39.1416 17.1427L41.0568 15.7872C40.2863 13.8476 39.192 12.0412 37.8173 10.439L35.6627 11.3478C34.7845 11.7208 33.8349 11.9128 32.8758 11.9114C29.3435 11.9078 26.379 9.35437 25.9935 5.98578L25.7318 3.73086C24.6611 3.56355 23.5841 3.47336 22.5259 3.46132ZM22.4956 13.8461C27.4732 13.8461 31.5082 17.7205 31.5082 22.5001C31.5082 27.2793 27.4732 31.1539 22.4956 31.1539C17.5181 31.1539 13.483 27.2793 13.483 22.5001C13.483 17.7205 17.5181 13.8461 22.4956 13.8461ZM22.4956 17.3076C19.509 17.3076 17.088 19.6323 17.088 22.5001C17.088 25.3676 19.509 27.6924 22.4956 27.6924C25.4821 27.6924 27.9032 25.3676 27.9032 22.5001C27.9032 19.6323 25.4821 17.3076 22.4956 17.3076Z" fill="#FEA609"/>
</svg>
